<svg width="24" height="24" viewBox="0 0 24 24" fill="none" xmlns="http://www.w3.org/2000/svg">
<g clip-path="url(#clip0_47_261)">
<path fill-rule="evenodd" clip-rule="evenodd" d="M14.3749 3.98156C13.6429 3.67099 12.8395 3.5 11.9997 3.5C8.89839 3.5 6.29305 5.83189 5.95057 8.9142L5.69877 11.1804L5.69252 11.2363C5.57163 12.2897 5.22873 13.3056 4.68645 14.2168L4.65758 14.265L4.07955 15.2284L4.06562 15.2516C3.81519 15.669 3.60774 16.0147 3.4729 16.301C3.33681 16.5899 3.23192 16.9025 3.28419 17.2338C3.3407 17.5919 3.52504 17.9175 3.80308 18.1502C4.06026 18.3655 4.38224 18.4364 4.70004 18.4683C5.01491 18.5 5.4181 18.5 5.90483 18.5H5.9319H18.0674H18.0945C18.5812 18.5 18.9844 18.5 19.2993 18.4683C19.6171 18.4364 19.9391 18.3655 20.1963 18.1502C20.4743 17.9175 20.6586 17.5919 20.7152 17.2338C20.7674 16.9025 20.6625 16.5899 20.5264 16.301C20.3916 16.0147 20.1842 15.669 19.9338 15.2517L19.9337 15.2516L19.9198 15.2284L19.3418 14.265L19.3129 14.2168C18.7706 13.3056 18.4277 12.2897 18.3068 11.2363L18.3006 11.1804L18.2581 10.798C17.9452 10.9016 17.6152 10.9677 17.2733 10.9908L17.3067 11.2909L17.3133 11.3503C17.4504 12.5442 17.839 13.6955 18.4536 14.7282L18.4843 14.7795L19.0623 15.7429C19.3302 16.1894 19.511 16.4918 19.6218 16.7271C19.7338 16.9649 19.7317 17.0504 19.7274 17.0779C19.7085 17.1973 19.6471 17.3058 19.5544 17.3834C19.533 17.4013 19.4608 17.447 19.1992 17.4734C18.9405 17.4994 18.5881 17.5 18.0674 17.5H5.9319C5.41122 17.5 5.05887 17.4994 4.80014 17.4734C4.53852 17.447 4.46633 17.4013 4.44494 17.3834C4.35225 17.3058 4.29081 17.1973 4.27197 17.0779C4.26762 17.0504 4.26556 16.9649 4.37759 16.7271C4.48838 16.4918 4.66915 16.1894 4.93704 15.7429L5.51507 14.7795L5.54578 14.7282C6.16037 13.6955 6.54899 12.5442 6.686 11.3503L6.69265 11.2909L6.94446 9.02463C7.23067 6.44875 9.40794 4.5 11.9997 4.5C12.5834 4.5 13.146 4.59884 13.6708 4.78142C13.8692 4.48435 14.1063 4.21532 14.3749 3.98156ZM16.1889 5.17115C15.8741 5.31089 15.6022 5.52951 15.3981 5.80192C16.2928 6.6054 16.904 7.72482 17.052 8.99933C17.4066 8.99021 17.7383 8.8888 18.0238 8.71822C17.823 7.32034 17.1546 6.08721 16.1889 5.17115Z" fill="#3F4F44"/>
<path d="M9.10222 18.4059C9.27315 19.1501 9.64978 19.8077 10.1737 20.2767C10.6976 20.7458 11.3396 21 12 21C12.6604 21 13.3024 20.7458 13.8263 20.2767C14.3502 19.8077 14.7269 19.1501 14.8978 18.4059" stroke="#3F4F44" stroke-linecap="round"/>
<circle cx="17" cy="7" r="2" fill="#3F4F44"/>
</g>
<defs>
<clipPath id="clip0_47_261">
<rect width="24" height="24" rx="8" fill="white"/>
</clipPath>
</defs>
</svg>
