<svg width="24" height="24" viewBox="0 0 24 24" fill="none" xmlns="http://www.w3.org/2000/svg">
<path d="M4.26624 15.5L2.52973 6.70896L7.08048 10.5169L7.95587 11.2494L8.56688 10.2853L12 4.86811L15.4331 10.2853L16.0441 11.2494L16.9195 10.5169L21.4703 6.70896L19.7338 15.5H4.26624ZM19.5556 19.875C19.5556 19.9222 19.5473 19.9446 19.545 19.95C19.5431 19.9546 19.5426 19.9545 19.5422 19.9549C19.5413 19.9557 19.5304 19.9657 19.5 19.9765C19.4687 19.9875 19.4148 20 19.3333 20H4.66667C4.58525 20 4.53126 19.9875 4.50004 19.9765C4.4696 19.9657 4.45874 19.9557 4.45779 19.9549C4.45744 19.9545 4.45692 19.9546 4.45498 19.95C4.45272 19.9446 4.44444 19.9222 4.44444 19.875V19.75H19.5556V19.875Z" stroke="#7E8982" stroke-width="2"/>
</svg>
