<svg width="24" height="24" viewBox="0 0 24 24" fill="none" xmlns="http://www.w3.org/2000/svg">
<path d="M12.9555 1.632C13.1489 1.31911 13.4905 1.12866 13.8583 1.12866C17.9649 1.12866 21.2873 4.45112 21.2873 8.55771C21.2873 9.14384 20.8122 9.619 20.226 9.619C19.6399 9.619 19.1647 9.14384 19.1647 8.55771C19.1647 6.51949 18.0202 4.75252 16.3378 3.86339L15.4861 4.715C15.3248 4.87632 15.1411 5.02899 14.9151 5.06064C14.4761 5.12214 14.0279 4.90232 13.8187 4.48394L12.909 2.66458C12.7445 2.33559 12.7621 1.94489 12.9555 1.632Z" fill="white"/>
<path d="M3.24536 13.8642C3.83149 13.8642 4.30665 14.3393 4.30665 14.9255C4.30665 16.9637 5.45118 18.7306 7.13364 19.6198L7.98525 18.7682C8.14657 18.6068 8.33034 18.4542 8.55627 18.4225C8.99524 18.361 9.44349 18.5809 9.65268 18.9992L10.5624 20.8186C10.7269 21.1476 10.7093 21.5383 10.5159 21.8512C10.3225 22.1641 9.98093 22.3545 9.61311 22.3545C5.50652 22.3545 2.18407 19.0321 2.18407 14.9255C2.18407 14.3393 2.65922 13.8642 3.24536 13.8642Z" fill="white"/>
<path d="M14.3169 18.6332C16.3138 17.581 18.8327 17.581 20.8295 18.6332C20.8795 18.6595 20.9456 18.6924 21.0234 18.7311C21.3951 18.916 22.0347 19.2342 22.471 19.6121C22.7384 19.8437 23.0724 20.2128 23.135 20.7195C23.205 21.2869 22.9114 21.7608 22.492 22.1145C21.8272 22.675 20.9962 23.1505 19.9129 23.1505H15.2335C14.1503 23.1505 13.3193 22.675 12.6545 22.1145C12.235 21.7608 11.9414 21.2869 12.0115 20.7195C12.0741 20.2128 12.4081 19.8437 12.6755 19.6121C13.1118 19.2342 13.7514 18.916 14.1231 18.7311C14.2009 18.6924 14.2669 18.6595 14.3169 18.6332Z" fill="white"/>
<path d="M14.3891 14.1295C14.3891 12.3786 15.807 10.9456 17.5729 10.9456C19.3389 10.9456 20.7568 12.3786 20.7568 14.1295C20.7568 15.8804 19.3389 17.3134 17.5729 17.3134C15.807 17.3134 14.3891 15.8804 14.3891 14.1295Z" fill="white"/>
<path d="M2.64168 8.02026C4.63856 6.96803 7.1574 6.96803 9.15429 8.02026C9.2043 8.04662 9.27034 8.07947 9.34812 8.11816C9.71985 8.30309 10.3594 8.62128 10.7957 8.9992C11.0631 9.2308 11.3971 9.59984 11.4597 10.1066C11.5298 10.6739 11.2362 11.1479 10.8167 11.5015C10.1519 12.062 9.32092 12.5375 8.23767 12.5375H3.5583C2.47505 12.5375 1.64406 12.062 0.979231 11.5015C0.55977 11.1479 0.266168 10.6739 0.336249 10.1066C0.398839 9.59984 0.732855 9.2308 1.00023 8.9992C1.43652 8.62128 2.07611 8.3031 2.44785 8.11816C2.52562 8.07947 2.59167 8.04661 2.64168 8.02026Z" fill="white"/>
<path d="M2.7138 3.51656C2.7138 1.76566 4.13175 0.332687 5.89768 0.332687C7.66361 0.332687 9.08156 1.76566 9.08156 3.51656C9.08156 5.26747 7.66361 6.70044 5.89768 6.70044C4.13175 6.70044 2.7138 5.26747 2.7138 3.51656Z" fill="white"/>
</svg>
