<svg width="20" height="21" viewBox="0 0 20 21" fill="none" xmlns="http://www.w3.org/2000/svg">
<path d="M7.18134 15.5811H3.78574C2.52731 15.5811 1.8981 15.5811 1.76572 15.4833C1.61698 15.3736 1.58064 15.3088 1.56453 15.1246C1.5502 14.9607 1.93585 14.3297 2.70714 13.0676C3.50349 11.7646 4.17969 9.86727 4.17969 7.18105C4.17969 5.69584 4.81183 4.27146 5.93705 3.22126C7.06227 2.17105 8.58839 1.58105 10.1797 1.58105C11.771 1.58105 13.2971 2.17105 14.4223 3.22126C15.5475 4.27146 16.1797 5.69584 16.1797 7.18105C16.1797 9.86727 16.8559 11.7646 17.6522 13.0676C18.4235 14.3297 18.8092 14.9607 18.7948 15.1246C18.7787 15.3088 18.7424 15.3736 18.5937 15.4833C18.4613 15.5811 17.8321 15.5811 16.5736 15.5811H13.1797M7.18134 15.5811L7.17969 16.5811C7.17969 18.2379 8.52283 19.5811 10.1797 19.5811C11.8365 19.5811 13.1797 18.2379 13.1797 16.5811V15.5811M7.18134 15.5811H13.1797" stroke="#232323" stroke-width="2" stroke-linecap="round" stroke-linejoin="round"/>
</svg>
