<svg width="26" height="27" viewBox="0 0 26 27" fill="none" xmlns="http://www.w3.org/2000/svg">
<path d="M2.41042 13.275C2.41042 12.0949 3.36709 11.1382 4.5472 11.1382C6.31737 11.1382 7.75238 12.5732 7.75238 14.3434V18.6169C7.75238 20.3871 6.31737 21.8221 4.5472 21.8221C3.36709 21.8221 2.41042 20.8654 2.41042 19.6853V13.275Z" stroke="#141B34" stroke-width="1.60259" stroke-linecap="round" stroke-linejoin="round"/>
<path d="M16.811 8.2602L16.5265 9.1791C16.2933 9.93207 16.1768 10.3086 16.2664 10.6059C16.3389 10.8464 16.4982 11.0538 16.7151 11.1902C16.9833 11.3588 17.389 11.3588 18.2003 11.3588H18.6319C21.3778 11.3588 22.7507 11.3588 23.3991 12.1716C23.4733 12.2645 23.5392 12.3633 23.5962 12.4669C24.0951 13.3734 23.5279 14.5946 22.3936 17.0369C21.3527 19.2781 20.8322 20.3988 19.8658 21.0584C19.7723 21.1222 19.6761 21.1824 19.5776 21.2389C18.5603 21.8221 17.2997 21.8221 14.7786 21.8221H14.2317C11.1773 21.8221 9.65014 21.8221 8.70126 20.9027C7.75238 19.9833 7.75238 18.5036 7.75238 15.5441V14.504C7.75238 12.9487 7.75238 12.1711 8.02839 11.4593C8.30439 10.7476 8.8329 10.1623 9.8899 8.99189L14.2611 4.15148C14.3708 4.03009 14.4256 3.96938 14.4739 3.92732C14.9251 3.53472 15.6213 3.57891 16.0158 4.02518C16.058 4.07299 16.1042 4.14011 16.1965 4.27432C16.341 4.48427 16.4132 4.58925 16.4762 4.69326C17.0397 5.62434 17.2102 6.73037 16.9521 7.78037C16.9233 7.89765 16.8858 8.01857 16.811 8.2602Z" stroke="#141B34" stroke-width="1.60259" stroke-linecap="round" stroke-linejoin="round"/>
</svg>
