<svg width="19" height="21" viewBox="0 0 19 21" fill="none" xmlns="http://www.w3.org/2000/svg">
<path fill-rule="evenodd" clip-rule="evenodd" d="M15.9986 12.7964C15.4542 12.7964 15.1334 13.188 15.1334 13.5284C15.1334 14.0063 14.746 14.3936 14.2682 14.3936C13.7904 14.3936 13.403 14.0063 13.403 13.5284C13.403 12.1046 14.6316 11.066 15.9986 11.066C17.3655 11.066 18.5941 12.1046 18.5941 13.5284C18.5941 14.0332 18.4334 14.5006 18.1645 14.8864C18.0058 15.1139 17.8226 15.3282 17.6612 15.5133C17.6308 15.5481 17.6013 15.5819 17.5724 15.6149C17.4389 15.7675 17.3212 15.9019 17.2122 16.0402C16.9365 16.39 16.8637 16.5893 16.8637 16.723V17.1223C16.8637 17.6001 16.4764 17.9874 15.9986 17.9874C15.5207 17.9874 15.1334 17.6001 15.1334 17.1223V16.723C15.1334 15.9745 15.5301 15.379 15.8533 14.9691C15.9926 14.7923 16.1455 14.6177 16.2797 14.4645C16.3062 14.4342 16.3321 14.4047 16.3569 14.3763C16.5171 14.1925 16.6451 14.0402 16.745 13.8968C16.8231 13.7847 16.8637 13.6596 16.8637 13.5284C16.8637 13.188 16.5429 12.7964 15.9986 12.7964ZM15.1249 19.7178C15.1249 19.24 15.5123 18.8526 15.9901 18.8526H15.9979C16.4757 18.8526 16.8631 19.24 16.8631 19.7178C16.8631 20.1956 16.4757 20.583 15.9979 20.583H15.9901C15.5123 20.583 15.1249 20.1956 15.1249 19.7178Z" fill="white"/>
<path d="M5.40009 5.44235C5.40009 2.93377 7.43369 0.900162 9.94228 0.900162C12.4509 0.900162 14.4845 2.93377 14.4845 5.44235C14.4845 7.95094 12.4509 9.98455 9.94228 9.98455C7.43369 9.98455 5.40009 7.95094 5.40009 5.44235Z" fill="white"/>
<path d="M10.4653 11.3797C9.54491 11.2499 8.60899 11.2499 7.68856 11.3797C6.42152 11.5584 5.18253 11.9833 4.0536 12.6555C3.95299 12.7154 3.82871 12.7855 3.68802 12.8649L3.68793 12.865C3.07122 13.2129 2.13898 13.7388 1.50033 14.3639C1.1009 14.7549 0.721389 15.2701 0.652395 15.9013C0.579022 16.5725 0.871854 17.2025 1.45933 17.7621C2.47284 18.7277 3.6891 19.5015 5.26226 19.5015H12.8916C13.0984 19.5015 13.2989 19.4882 13.4937 19.4628C13.6468 19.4428 13.7234 19.4328 13.7812 19.3847C13.839 19.3367 13.8699 19.2412 13.9318 19.0503C13.966 18.9447 14.0082 18.8427 14.0575 18.7449C14.1481 18.5653 14.1934 18.4755 14.1936 18.4142C14.1938 18.3529 14.1491 18.2628 14.0597 18.0827C13.916 17.7933 13.8353 17.4672 13.8353 17.1223V16.723C13.8353 16.5706 13.8454 16.4233 13.8639 16.2813C13.9011 15.9947 13.9197 15.8514 13.8772 15.7761C13.8346 15.7008 13.6898 15.6373 13.4003 15.5104C12.6376 15.176 12.1049 14.4145 12.1049 13.5285C12.1049 13.1371 12.1632 12.768 12.2699 12.4252C12.3574 12.1442 12.4011 12.0037 12.3504 11.9082C12.2996 11.8126 12.1784 11.7761 11.936 11.7029C11.4533 11.5574 10.9615 11.4497 10.4653 11.3797Z" fill="white"/>
</svg>
