<svg width="45" height="46" viewBox="0 0 45 46" fill="none" xmlns="http://www.w3.org/2000/svg">
<rect width="45" height="46" rx="15" fill="#E4E4E4"/>
<path d="M13.5 20H31.5M17.5 14V16M27.5 14V16M16.5 24H18.5M16.5 28H18.5M21.5 24H23.5M21.5 28H23.5M26.5 24H28.5M26.5 28H28.5M16.7 32H28.3C29.4201 32 29.9802 32 30.408 31.782C30.7843 31.5903 31.0903 31.2843 31.282 30.908C31.5 30.4802 31.5 29.9201 31.5 28.8V19.2C31.5 18.0799 31.5 17.5198 31.282 17.092C31.0903 16.7157 30.7843 16.4097 30.408 16.218C29.9802 16 29.4201 16 28.3 16H16.7C15.5799 16 15.0198 16 14.592 16.218C14.2157 16.4097 13.9097 16.7157 13.718 17.092C13.5 17.5198 13.5 18.0799 13.5 19.2V28.8C13.5 29.9201 13.5 30.4802 13.718 30.908C13.9097 31.2843 14.2157 31.5903 14.592 31.782C15.0198 32 15.5799 32 16.7 32Z" stroke="#111111" stroke-width="2" stroke-linecap="round" stroke-linejoin="round"/>
</svg>
