<svg width="25" height="25" viewBox="0 0 25 25" fill="none" xmlns="http://www.w3.org/2000/svg">
<path d="M10.4269 16.7909C10.4269 13.4178 13.2759 10.7394 16.7184 10.7394C20.1608 10.7394 23.0098 13.4178 23.0098 16.7909C23.0098 18.407 22.3508 19.8709 21.2875 20.9506C21.2439 20.9949 21.2201 21.0352 21.21 21.0605C21.2074 21.0672 21.2061 21.0718 21.2054 21.0746C21.2745 21.4304 21.4283 21.7595 21.6497 22.0318C21.8177 22.2385 21.8644 22.5184 21.7725 22.7684C21.6807 23.0185 21.4638 23.2016 21.2019 23.2503C20.2329 23.4305 19.2301 23.268 18.3709 22.8111C18.2647 22.7546 18.1945 22.7174 18.1426 22.6915C18.0939 22.6995 18.0279 22.7118 17.9288 22.7304C17.5297 22.8054 17.1244 22.843 16.7179 22.8425C13.2757 22.8422 10.4269 20.1639 10.4269 16.7909Z" fill="#141B34"/>
<path d="M11.1819 1.67969C5.79386 1.67969 1.36725 5.8673 1.36725 11.1018C1.36725 13.6121 2.39036 15.8887 4.0475 17.5714C4.27968 17.8072 4.34245 18.0359 4.31375 18.1892C4.18717 18.853 3.90103 19.4694 3.48526 19.9808C3.31722 20.1875 3.27054 20.4674 3.36241 20.7174C3.45429 20.9675 3.67112 21.1506 3.933 21.1993C5.40972 21.474 6.94036 21.2264 8.25223 20.5288C8.4199 20.4396 8.54025 20.3757 8.63361 20.329C8.69396 20.2988 8.72413 20.2837 8.74803 20.2763C8.77193 20.269 8.77405 20.2687 8.77405 20.2687C8.79318 20.2661 8.81549 20.2658 8.84055 20.2696C8.93985 20.2833 9.07422 20.3083 9.28987 20.3488C9.5319 20.3942 9.71008 20.1338 9.60583 19.9107C9.16452 18.9663 8.91698 17.9124 8.91698 16.7909C8.91698 12.5192 12.5081 9.22942 16.7184 9.22942C17.8501 9.22942 18.9371 9.46714 19.9217 9.89775C20.4236 10.1173 20.6746 10.227 20.8173 10.1116C20.96 9.9962 20.9109 9.75571 20.8127 9.27474C19.9244 4.92592 15.9258 1.67969 11.1819 1.67969Z" fill="#141B34"/>
</svg>
