<svg width="29" height="30" viewBox="0 0 29 30" fill="none" xmlns="http://www.w3.org/2000/svg">
<path d="M21.8606 10.9927L9.48612 5.42421C8.57986 5.01637 7.82487 4.67661 7.21831 4.4665C6.6305 4.26288 5.92805 4.08293 5.23203 4.2766C4.31769 4.53101 3.57608 5.20034 3.22955 6.08388C2.96576 6.75647 3.07297 7.47363 3.21545 8.07918C3.36246 8.70403 3.62328 9.48978 3.93636 10.433L4.95654 13.5066H13.8966C14.5639 13.5066 15.1049 14.0476 15.1049 14.7149C15.1049 15.3823 14.5639 15.9233 13.8966 15.9233H4.9831L3.96067 18.9774C3.64417 19.9228 3.38059 20.71 3.23156 21.336C3.08723 21.9423 2.97775 22.6609 3.24077 23.335C3.5861 24.2202 4.32779 24.8913 5.24298 25.1468C5.94002 25.3413 6.64405 25.1608 7.23294 24.9567C7.841 24.7461 8.59814 24.4053 9.50731 23.9962L21.8606 18.4372C22.747 18.0383 23.4873 17.7052 24.0371 17.3958C24.5722 17.0947 25.1624 16.6939 25.4789 16.0538C25.8961 15.21 25.8961 14.2199 25.4789 13.3761C25.1624 12.736 24.5722 12.3352 24.0371 12.0341C23.4872 11.7246 22.747 11.3916 21.8606 10.9927Z" fill="black"/>
</svg>
