<svg width="27" height="27" viewBox="0 0 27 27" fill="none" xmlns="http://www.w3.org/2000/svg">
<path d="M21.0423 10.5402L18.9426 8.43312C17.4297 6.91494 16.8367 6.09824 16.0175 6.38696C14.9959 6.74697 15.3322 9.01852 15.3322 9.7854C13.744 9.7854 12.0928 9.64425 10.5273 9.93836C5.35917 10.9093 3.74313 15.1067 3.74313 19.6844C5.20586 18.6482 6.66715 17.5444 8.42518 17.0642C10.6197 16.4648 13.0706 16.7508 15.3322 16.7508C15.3322 17.5176 14.9959 19.7893 16.0175 20.1492C16.9458 20.4763 17.4297 19.6213 18.9426 18.1031L21.0423 15.996C22.3302 14.7036 22.9742 14.0573 22.9742 13.2681C22.9742 12.4789 22.3302 11.8326 21.0423 10.5402Z" stroke="#141B34" stroke-width="1.60259" stroke-linecap="round" stroke-linejoin="round"/>
</svg>
