<svg width="57" height="56" viewBox="0 0 57 56" fill="none" xmlns="http://www.w3.org/2000/svg">
<path d="M2.66663 29.2918C2.66663 17.7228 2.66663 11.9383 6.26067 8.34421C9.85471 4.75017 15.6392 4.75017 27.2083 4.75017C38.7773 4.75017 44.5619 4.75017 48.1559 8.34421C51.75 11.9383 51.75 17.7228 51.75 29.2918C51.75 40.8609 51.75 46.6454 48.1559 50.2395C44.5619 53.8335 38.7773 53.8335 27.2083 53.8335C15.6392 53.8335 9.85471 53.8335 6.26067 50.2395C2.66663 46.6454 2.66663 40.8609 2.66663 29.2918Z" fill="#D4D7E0"/>
<path d="M50.7951 45.4537C51.2547 43.9045 50.457 42.4851 50.457 40.5377C47.6268 38.9997 44.6995 38.2194 41.7558 38.2227C37.6884 38.2054 33.6586 39.6672 29.8723 42.5259C32.5421 45.4367 34.5237 48.8505 35.6739 52.5434C38.6104 51.7884 43.2292 52.494 45.9991 51.0138C48.3444 49.7606 49.4588 48.7433 50.1687 47.0313C50.3851 46.5095 50.6345 45.9953 50.7951 45.4537Z" fill="white"/>
<path d="M6.25979 50.2395C9.85384 53.8335 15.6384 53.8335 27.2074 53.8335C31.1176 53.8335 34.3669 53.8335 37.0943 53.6947C35.3039 48.5249 31.7598 43.9159 26.8885 40.4885C21.1562 36.4553 13.9591 34.3206 6.58129 34.4654C5.70525 34.4634 4.82995 34.4913 3.95742 34.5491H2.68176C2.76307 42.7053 3.25715 47.2368 6.25979 50.2395Z" fill="white"/>
<path d="M31.0833 4.75615C29.8689 4.75017 28.5792 4.75017 27.2083 4.75017C15.6392 4.75017 9.85471 4.75017 6.26067 8.34421C2.66663 11.9383 2.66663 17.7228 2.66663 29.2918C2.66663 40.8609 2.66663 46.6454 6.26067 50.2395C9.85471 53.8335 15.6392 53.8335 27.2083 53.8335C38.7773 53.8335 44.5619 53.8335 48.1559 50.2395C51.6136 46.7817 51.7448 41.2965 51.7498 30.5835" stroke="#141B34" stroke-width="3.875" stroke-linecap="round"/>
<path d="M2.66663 33.5167C4.26575 33.2845 5.88246 33.1697 7.50189 33.1737C14.3527 33.029 21.0358 35.1636 26.3586 39.1968C31.2951 42.9374 34.7638 48.0853 36.25 53.8335" stroke="#141B34" stroke-width="3.875" stroke-linejoin="round"/>
<path d="M51.7499 40.6487C48.7134 39.1107 45.5726 38.3304 42.4143 38.3336C37.6307 38.3148 32.8955 40.073 28.4999 43.5002" stroke="#141B34" stroke-width="3.875" stroke-linejoin="round"/>
<path d="M41.4166 8.62517C42.6864 7.31878 46.066 2.16684 47.875 2.16684M54.3333 8.62517C53.0635 7.31878 49.6839 2.16684 47.875 2.16684M47.875 2.16684V22.8335" stroke="#141B34" stroke-width="3.875" stroke-linecap="round" stroke-linejoin="round"/>
</svg>
